<svg width="32" height="32" viewBox="0 0 32 32" fill="none" xmlns="http://www.w3.org/2000/svg">
<g filter="url(#filter0_i_6022_7342)">
<rect width="32" height="32" rx="16" fill="#FDE5EB"/>
<path d="M6.5 16C6.5 17.2476 6.74572 18.4829 7.22314 19.6355C7.70056 20.7881 8.40033 21.8354 9.28249 22.7175C10.1646 23.5997 11.2119 24.2994 12.3645 24.7769C13.5171 25.2543 14.7524 25.5 16 25.5C17.2476 25.5 18.4829 25.2543 19.6355 24.7769C20.7881 24.2994 21.8354 23.5997 22.7175 22.7175C23.5997 21.8354 24.2994 20.7881 24.7769 19.6355C25.2543 18.4829 25.5 17.2476 25.5 16C25.5 13.4804 24.4991 11.0641 22.7175 9.28249C20.9359 7.50089 18.5196 6.5 16 6.5C13.4804 6.5 11.0641 7.50089 9.28249 9.28249C7.50089 11.0641 6.5 13.4804 6.5 16Z" stroke="#EE0033" stroke-width="1.5" stroke-linecap="round" stroke-linejoin="round"/>
<path d="M16 10.7222V16L19.1667 19.1667" stroke="#EE0033" stroke-width="1.5" stroke-linecap="round" stroke-linejoin="round"/>
</g>
<defs>
<filter id="filter0_i_6022_7342" x="0" y="0" width="32" height="35" filterUnits="userSpaceOnUse" color-interpolation-filters="sRGB">
<feFlood flood-opacity="0" result="BackgroundImageFix"/>
<feBlend mode="normal" in="SourceGraphic" in2="BackgroundImageFix" result="shape"/>
<feColorMatrix in="SourceAlpha" type="matrix" values="0 0 0 0 0 0 0 0 0 0 0 0 0 0 0 0 0 0 127 0" result="hardAlpha"/>
<feOffset dy="3"/>
<feGaussianBlur stdDeviation="2"/>
<feComposite in2="hardAlpha" operator="arithmetic" k2="-1" k3="1"/>
<feColorMatrix type="matrix" values="0 0 0 0 1 0 0 0 0 1 0 0 0 0 1 0 0 0 0.6 0"/>
<feBlend mode="normal" in2="shape" result="effect1_innerShadow_6022_7342"/>
</filter>
</defs>
</svg>
