<svg width="32" height="32" viewBox="0 0 32 32" fill="none" xmlns="http://www.w3.org/2000/svg">
<g filter="url(#filter0_i_6022_7333)">
<rect width="32" height="32" rx="16" fill="#FDE5EB"/>
<path d="M16.0015 18.3427H16.0506C17.1027 18.3707 17.9444 19.2265 17.9444 20.2786C17.9444 21.1764 17.3341 21.9269 16.5065 22.1513V22.9369C16.5065 23.2174 16.282 23.4419 16.0015 23.4419C15.7209 23.4419 15.4965 23.2174 15.4965 22.9369V22.1513C15.0843 22.0405 14.7202 21.797 14.4603 21.4585C14.2004 21.12 14.0592 20.7053 14.0586 20.2786C14.0586 19.998 14.283 19.7736 14.5636 19.7736C14.8442 19.7736 15.0686 19.998 15.0686 20.2786C15.0686 20.7976 15.4824 21.2114 15.9945 21.2114C16.5065 21.2114 16.9273 20.7906 16.9273 20.2786C16.9273 19.7665 16.5065 19.3457 15.9945 19.3457H15.9454C15.4408 19.332 14.9614 19.1221 14.6091 18.7607C14.2568 18.3992 14.0593 17.9146 14.0586 17.4098C14.0586 16.512 14.6688 15.7615 15.4965 15.5371V14.7515C15.4965 14.471 15.7209 14.2465 16.0015 14.2465C16.282 14.2465 16.5065 14.471 16.5065 14.7515V15.5371C17.3341 15.7615 17.9444 16.512 17.9444 17.4098C17.9444 17.6904 17.7199 17.9148 17.4394 17.9148C17.1588 17.9148 16.9343 17.6904 16.9343 17.4098C16.9343 16.8978 16.5135 16.477 16.0015 16.477C15.4895 16.477 15.0686 16.8978 15.0686 17.4098C15.0686 17.9219 15.4895 18.3427 16.0015 18.3427Z" fill="#EE0033"/>
<path d="M12.2791 8.35122L14.2332 10.6378L14.022 10.8735C10.0002 11.7755 6.99609 15.3673 6.99609 19.6613C6.99609 23.4363 10.0598 26.5 13.8348 26.5H18.1624C21.9374 26.5 25.0011 23.437 25.0011 19.662C25.0081 15.3673 22.004 11.7755 17.9822 10.8735C17.9985 10.7252 17.9717 10.5755 17.905 10.4421L19.5673 8.5392L19.6746 8.37367C19.8 8.10035 19.832 7.79343 19.7659 7.50012C19.6997 7.20681 19.5391 6.94335 19.3086 6.75025C19.0781 6.55715 18.7906 6.44511 18.4903 6.43137C18.1899 6.41762 17.8933 6.50293 17.6462 6.67417L17.0549 5.97277C16.9223 5.82434 16.7598 5.70552 16.5782 5.62406C16.3966 5.5426 16.1998 5.50033 16.0008 5.5C15.8017 5.49967 15.6048 5.54129 15.4229 5.62214C15.241 5.703 15.0782 5.82127 14.9451 5.96926L14.3257 6.66084C14.0792 6.48604 13.782 6.39733 13.48 6.40844C13.178 6.41955 12.8881 6.52985 12.6551 6.72229C12.4221 6.91473 12.259 7.17858 12.191 7.47303C12.123 7.76748 12.154 8.07612 12.2791 8.35122ZM14.9437 9.32266L13.7541 7.94791C14.0305 8.08108 14.3432 8.1189 14.6433 8.05544C14.9435 7.99199 15.2141 7.83084 15.4129 7.59721L15.974 6.86916L16.5969 7.60703C16.7911 7.83287 17.0531 7.98991 17.3438 8.05475C17.6345 8.11959 17.9384 8.08876 18.2101 7.96685L17.0261 9.32266H14.9437ZM8.3989 19.6613C8.3989 15.4613 11.8021 12.0581 16.0021 12.0581C20.2021 12.0581 23.6053 15.4613 23.5983 19.6599V19.6613C23.5977 21.1028 23.0248 22.4851 22.0055 23.5045C20.9862 24.5238 19.6039 25.0966 18.1624 25.0972H13.8348C12.3933 25.0966 11.0109 24.5238 9.99164 23.5045C8.97234 22.4851 8.39946 21.1028 8.3989 19.6613Z" fill="#EE0033"/>
</g>
<defs>
<filter id="filter0_i_6022_7333" x="0" y="0" width="32" height="35" filterUnits="userSpaceOnUse" color-interpolation-filters="sRGB">
<feFlood flood-opacity="0" result="BackgroundImageFix"/>
<feBlend mode="normal" in="SourceGraphic" in2="BackgroundImageFix" result="shape"/>
<feColorMatrix in="SourceAlpha" type="matrix" values="0 0 0 0 0 0 0 0 0 0 0 0 0 0 0 0 0 0 127 0" result="hardAlpha"/>
<feOffset dy="3"/>
<feGaussianBlur stdDeviation="2"/>
<feComposite in2="hardAlpha" operator="arithmetic" k2="-1" k3="1"/>
<feColorMatrix type="matrix" values="0 0 0 0 1 0 0 0 0 1 0 0 0 0 1 0 0 0 0.6 0"/>
<feBlend mode="normal" in2="shape" result="effect1_innerShadow_6022_7333"/>
</filter>
</defs>
</svg>
