<svg id="a7b3c9a9-2433-4701-8b36-f311d51e07db" data-name="e2fe2331-1492-4e45-ad8e-88ded3edf233" xmlns="http://www.w3.org/2000/svg" width="303.22" height="303.22" viewBox="0 0 303.22 303.22">
  <g>
    <path d="M303.22,151.61a151.61,151.61,0,1,0-175.3,149.76V196.75H89.42V152.91h38.5V119.5c0-38,22.65-59,57.27-59a233.24,233.24,0,0,1,33.94,3v37.31H200c-18.85,0-24.71,11.71-24.71,23.69v28.44h42l-6.72,43.84H175.3V301.37A151.64,151.64,0,0,0,303.22,151.61Z" transform="translate(0 0)" fill="#0084ff"/>
    <path d="M210.62,196.75l6.72-43.84h-42V124.47c0-12,5.86-23.69,24.71-23.69h19.12V63.47a233.24,233.24,0,0,0-33.94-3c-34.62,0-57.27,21-57.27,59v33.41H89.42v43.84h38.5V301.37a152.61,152.61,0,0,0,47.38,0V196.75Z" transform="translate(0 0)" fill="#fff"/>
  </g>
</svg>
