<svg id="f45b3b66-0e90-47c3-afa8-58c055cf9da4" data-name="a2487db3-bab2-4e16-813d-50e8a8143198" xmlns="http://www.w3.org/2000/svg" xmlns:xlink="http://www.w3.org/1999/xlink" width="900" height="958" viewBox="0 0 900 958">
  <defs>
    <clipPath id="f02070ef-296f-44a1-84db-7f492e44b866">
      <rect width="900" height="900" fill="none"/>
    </clipPath>
  </defs>
  <g clip-path="url(#f02070ef-296f-44a1-84db-7f492e44b866)">
    <rect width="900" height="900" fill="#e03"/>
    <path d="M546,158.93,311.85,244.15C208.34,281.83,155,396.27,192.65,499.77l18.91,51.94L358.31,954.93a1.5,1.5,0,0,0,2.88-.77C341.26,841.4,421.83,687.42,597.24,623.57l104.09-37.88c117.85-42.9,178.61-173.2,135.71-291S663.85,116,546,158.93Z" fill="none" stroke="#fff" stroke-miterlimit="10" stroke-width="4.24"/>
    <path d="M683.89,239.25c-33.7,0-62,20.21-75.71,49.14h0l-142,301.66c-3.34,7.14-10,18.74-15.61,18.74s-12.27-11.6-15.63-18.74L292,288.38c-13.71-28.93-42-49.13-75.71-49.13H133.67L359.06,675.74c22.32,42.85,68.06,42,91.5,42,32.36,0,70.29-1.78,90.37-42l225.4-436.49Z" fill="#fff"/>
  </g>
</svg>
