<svg id="f1511911-7d29-4840-9907-1fb3d0a12b9f" data-name="Layer 1" xmlns="http://www.w3.org/2000/svg" width="300" height="300" viewBox="0 0 300 300">
  <g>
    <rect width="300" height="300" rx="150" fill="#ec1b30"/>
    <g>
      <path d="M196.29,140l-14.74-5.41L158,125.94l-4.22-1.55a7,7,0,0,0-5.75-.45l-.36.13a9.47,9.47,0,0,0-1,.37l-35.48,13.31-5.25,2c-3.4,1.28-6.4,4.24-6.22,8.18a10,10,0,0,0,1.15,4.28,9.07,9.07,0,0,0,5.07,3.9l37.53,14.56c1.5.58,3,1.25,4.53,1.76,3,1,5.66-.43,8.34-1.41l22.33-8.2,17.57-6.44c3.41-1.25,6.4-4.27,6.22-8.18A8.87,8.87,0,0,0,196.29,140Zm-42.77,14-3.15,1.16L131.94,148l15.38-5.77,3-1.14,12.45,4.58,6.71,2.46Z" fill="#fff"/>
      <path d="M191.78,166.62,177,172.12l-23.52,8.78-3.17,1.18-34.63-13.44-5.22-2c-1.93-.75-4.82-.15-6.53.85a8.49,8.49,0,0,0-3,11.61A9.8,9.8,0,0,0,106,183l37.53,14.55c1.5.59,3,1.26,4.53,1.76,3,1,5.66-.42,8.34-1.42l22.33-8.34L196.29,183a9.18,9.18,0,0,0,5.07-3.9,8.69,8.69,0,0,0,.85-6.54C200.9,168.49,196.23,165,191.78,166.62Z" fill="#fff"/>
      <path d="M239.15,131.74a46.18,46.18,0,0,0-30.83-15.57,63.87,63.87,0,0,0-12.15-20.88,62.72,62.72,0,0,0-24.52-17c-21.8-8.69-47.35-3.22-64.47,12.5A61.81,61.81,0,0,0,90.63,116.3a42.35,42.35,0,0,0-9.71,2.14,48.79,48.79,0,0,0-15.6,9c-9.06,7.73-14.28,18.9-15.55,30.61-2.51,23.19,14.82,46,37.89,49.68,6.76,1.07,13.65.81,20.48.77l34.49,14.05c1.54.63,3.06,1.34,4.63,1.89,2.74,1,5-.21,7.38-1.14l20.74-8,15.7-6.07c4.68,0,9.38.08,14.06,0a46.27,46.27,0,0,0,45.51-45.51A47.39,47.39,0,0,0,239.15,131.74Zm-5,35.33a39.71,39.71,0,0,1-2.13,7.71,39.11,39.11,0,0,1-2.86,5.14c-.28.42-.57.84-.87,1.25l.27-.31c-.13.15-.25.31-.38.47l0,0a4.6,4.6,0,0,1-.58.66c-.63.73-1.28,1.45-2,2.13a35,35,0,0,1-2.63,2.39l-.1.1c-.46.33-.91.66-1.38,1a38.15,38.15,0,0,1-5.3,3,39.81,39.81,0,0,1-7.88,2.16c-4.64.46-9.4.21-14,.21-2.12,0-4.7-.31-6.76.29-.75.22-1.48.57-2.21.85l-28.81,11.14-7,2.69-20.21-8.24-13.71-5.58c-1.16-.47-2.3-1-3.47-1.42a12.61,12.61,0,0,0-4.41-.45c-5.23,0-10.61.32-15.84-.21A39.53,39.53,0,0,1,84,189.87,37.87,37.87,0,0,1,78.88,187c-.43-.28-.84-.57-1.26-.87l.31.27-.46-.38,0,0a5.1,5.1,0,0,1-.67-.58c-.73-.63-1.44-1.28-2.13-2-.84-.84-1.63-1.72-2.39-2.63l-.09-.1c-.33-.46-.66-.91-1-1.38a38.09,38.09,0,0,1-3-5.3,39.61,39.61,0,0,1-2.13-7.7,40.13,40.13,0,0,1,0-8.2,39.51,39.51,0,0,1,2.13-7.71,39.57,39.57,0,0,1,2.85-5.14c.29-.43.58-.84.88-1.26l-.27.31.38-.46,0,0a4.35,4.35,0,0,1,.58-.67c.63-.73,1.28-1.44,2-2.13.84-.84,1.71-1.63,2.62-2.39l.11-.09c.46-.33.91-.66,1.38-1a38.09,38.09,0,0,1,5.3-3,38.59,38.59,0,0,1,7.91-2.16c1.53-.15,3.06-.2,4.6-.21h7.27l1.24-7.37a59,59,0,0,1,2.07-6.36,56.39,56.39,0,0,1,4.53-8.24c.45-.65.91-1.3,1.38-1.94l-.22.26c.09-.11.18-.21.26-.32l0,0c.12-.17.35-.45.5-.62h0c1.1-1.32,2.25-2.59,3.47-3.8s2.49-2.37,3.81-3.47l.32-.27.31-.23c.66-.49,1.34-1,2-1.43a53.75,53.75,0,0,1,8-4.43,55.45,55.45,0,0,1,12-3.27,55.6,55.6,0,0,1,11.82,0,56,56,0,0,1,12.13,3.32,55,55,0,0,1,8.05,4.47c.65.44,1.29.89,1.92,1.36l.85.69c1.26,1.06,2.48,2.17,3.64,3.33s2.27,2.38,3.32,3.65c.2.23.39.47.58.71.5.68,1,1.37,1.46,2.07a55.49,55.49,0,0,1,4.5,8.17,52.57,52.57,0,0,1,2.42,7.77l.69,6h9.44a39.53,39.53,0,0,1,4.08.24,39.7,39.7,0,0,1,7.73,2.13,39.57,39.57,0,0,1,5.14,2.85c.43.29.84.58,1.25.88l-.3-.27.46.38,0,0a4.6,4.6,0,0,1,.66.58c.74.63,1.45,1.28,2.14,2,.83.84,1.63,1.71,2.39,2.62l.09.11c.33.46.66.91,1,1.38a38.09,38.09,0,0,1,2.95,5.3,39.42,39.42,0,0,1,2.13,7.7A42.89,42.89,0,0,1,234.13,167.07Z" fill="#fff"/>
      <path d="M222.83,138.54l-.09-.07-.16-.11c.58.49.82.69.87.72C223.25,138.9,223,138.71,222.83,138.54Z" fill="#fff"/>
      <path d="M77.38,186l.09.07.15.11c-.57-.49-.81-.69-.87-.72Z" fill="#fff"/>
      <path d="M72.12,143.8l-.07.09-.11.15c.49-.57.68-.81.72-.87C72.48,143.38,72.29,143.59,72.12,143.8Z" fill="#fff"/>
      <path d="M228.09,181.41a.27.27,0,0,0,.07-.08l.11-.16c-.49.57-.69.82-.72.87C227.73,181.83,227.92,181.63,228.09,181.41Z" fill="#fff"/>
      <path d="M113.59,107.65c-.18.21-.35.43-.52.64l0,.06C113.81,107.41,113.8,107.41,113.59,107.65Z" fill="#fff"/>
    </g>
  </g>
</svg>
