<svg id="b1d58c02-4739-4d5b-8a0d-433d1205f597" data-name="e2fe2331-1492-4e45-ad8e-88ded3edf233" xmlns="http://www.w3.org/2000/svg" width="303.22" height="303.22" viewBox="0 0 303.22 303.22">
  <path d="M151.61,0A151.62,151.62,0,1,0,303.22,151.61,151.61,151.61,0,0,0,151.61,0Z" transform="translate(0 0)" fill="#3ab828"/>
  <g>
    <path d="M198.15,204.85c-11.24-4.12-22.35-8.56-33.52-12.87a8.87,8.87,0,0,0-10.18,2.45,28.44,28.44,0,0,0-5.45,8.74c-.32.86-.66,1.06-1.47.52-2.11-1.41-4.32-2.66-6.37-4.14q-34.78-25.22-40.31-67.85c-.14-1.13.19-1.31,1.19-1.27a27.48,27.48,0,0,0,10.33-1.53,8.42,8.42,0,0,0,6.06-7.61c.11-1.05.15-2.11.2-3.17.63-11.35,1.23-22.7,1.89-34.05.3-5.34-1.58-8.45-6.53-10.41A29.48,29.48,0,0,0,74.17,94.85a127.86,127.86,0,0,0-2.79,26.31,125.27,125.27,0,0,0,30,80.89c17.26,20.22,38.93,33.46,64.68,40.06,4.59,1.18,9.21,2,13.93,1.34a29.36,29.36,0,0,0,25.62-26.13C206.27,211.38,205.12,207.41,198.15,204.85Z" transform="translate(0 0)" fill="#fefefe"/>
    <path d="M233.5,151.37a65.58,65.58,0,0,0-1.28-8.6q-9-39.14-45.43-56.06a76.52,76.52,0,0,0-25.17-6.39c-.75-.07-1.11.09-1.16.89-.1,1.47-.24,2.93-.39,4.4-.08.71.18,1,.89,1,1.83.16,3.67.33,5.49.63a72.56,72.56,0,0,1,61.05,69.38,60.7,60.7,0,0,1-.31,9.24c-.09.81.14,1.16,1,1.19a22.5,22.5,0,0,1,3.85.35c1.09.22,1.39-.19,1.45-1.15.16-2.57.39-5.14.33-7.72A61.25,61.25,0,0,0,233.5,151.37Z" transform="translate(0 0)" fill="#fdfdfd"/>
    <path d="M159.39,103.8c-.72-.07-1,.12-1,.84-.09,1.43-.21,2.85-.41,4.26-.13.92.2,1.15,1.09,1.23a48.86,48.86,0,0,1,44.5,42.25,46.87,46.87,0,0,1,.18,11.29c-.1.9.18,1.23,1.07,1.27,1.38.07,2.75.22,4.12.38.69.08,1-.12,1-.85a62.22,62.22,0,0,0,.27-6.27,51.66,51.66,0,0,0-7.38-27C193,114.76,178.42,105.71,159.39,103.8Z" transform="translate(0 0)" fill="#fefefe"/>
    <path d="M157.19,135.79a22,22,0,0,1,15.27,7.67,22.29,22.29,0,0,1,5.64,17.73c-.1.95.05,1.45,1.16,1.46a26.5,26.5,0,0,1,4,.34c.91.14,1.15-.19,1.16-1,0-1.06.12-2.11.17-2.87a29.49,29.49,0,0,0-27-29.69c-1.16-.12-1.57.24-1.58,1.37a19.62,19.62,0,0,1-.28,3.15C155.46,135.23,155.81,135.68,157.19,135.79Z" transform="translate(0 0)" fill="#fefefe"/>
  </g>
</svg>
