<svg width="32" height="32" viewBox="0 0 32 32" fill="none" xmlns="http://www.w3.org/2000/svg">
<g filter="url(#filter0_i_6022_7358)">
<rect width="32" height="32" rx="16" fill="#FDE5EB"/>
<path d="M19.414 21.8501H19.3519L19.3079 21.8941L16.6009 24.601C16.6009 24.601 16.6009 24.6011 16.6009 24.6011C16.4415 24.7604 16.2254 24.8499 16 24.8499C15.7746 24.8499 15.5585 24.7604 15.3991 24.6011C15.3991 24.6011 15.3991 24.601 15.3991 24.601L12.6921 21.8941L12.6481 21.8501H12.586H8C7.50935 21.8501 7.03879 21.6552 6.69185 21.3083C6.34491 20.9613 6.15 20.4908 6.15 20.0001V9.00012C6.15 8.50947 6.34491 8.03892 6.69185 7.69197C7.03879 7.34503 7.50935 7.15012 8 7.15012H24C24.4907 7.15012 24.9612 7.34503 25.3081 7.69197C25.6551 8.03892 25.85 8.50947 25.85 9.00012V20.0001C25.85 20.4908 25.6551 20.9613 25.3081 21.3083C24.9612 21.6552 24.4907 21.8501 24 21.8501H19.414ZM24.15 9.00012V8.85012H24H8H7.85V9.00012V20.0001V20.1501H8H13C13 20.1501 13 20.1501 13 20.1501C13.2254 20.1502 13.4416 20.2398 13.6009 20.3992L13.6009 20.3992L15.8939 22.6922L16 22.7983L16.1061 22.6922L18.3991 20.3992L18.3991 20.3992C18.5584 20.2398 18.7746 20.1502 19 20.1501C19 20.1501 19 20.1501 19 20.1501H24H24.15V20.0001V9.00012ZM10.15 12.5001C10.15 12.2747 10.2396 12.0585 10.399 11.8991C10.5584 11.7397 10.7746 11.6501 11 11.6501H21C21.2254 11.6501 21.4416 11.7397 21.601 11.8991C21.7604 12.0585 21.85 12.2747 21.85 12.5001C21.85 12.7256 21.7604 12.9418 21.601 13.1012C21.4416 13.2606 21.2254 13.3501 21 13.3501H11C10.7746 13.3501 10.5584 13.2606 10.399 13.1012C10.2396 12.9418 10.15 12.7256 10.15 12.5001ZM10.15 16.5001C10.15 16.2747 10.2396 16.0585 10.399 15.8991C10.5584 15.7397 10.7746 15.6501 11 15.6501H17C17.2254 15.6501 17.4416 15.7397 17.601 15.8991C17.7604 16.0585 17.85 16.2747 17.85 16.5001C17.85 16.7256 17.7604 16.9418 17.601 17.1012C17.4416 17.2606 17.2254 17.3501 17 17.3501H11C10.7746 17.3501 10.5584 17.2606 10.399 17.1012C10.2396 16.9418 10.15 16.7256 10.15 16.5001Z" fill="#EE0033" stroke="#FDE9EE" stroke-width="0.3"/>
</g>
<defs>
<filter id="filter0_i_6022_7358" x="0" y="0" width="32" height="35" filterUnits="userSpaceOnUse" color-interpolation-filters="sRGB">
<feFlood flood-opacity="0" result="BackgroundImageFix"/>
<feBlend mode="normal" in="SourceGraphic" in2="BackgroundImageFix" result="shape"/>
<feColorMatrix in="SourceAlpha" type="matrix" values="0 0 0 0 0 0 0 0 0 0 0 0 0 0 0 0 0 0 127 0" result="hardAlpha"/>
<feOffset dy="3"/>
<feGaussianBlur stdDeviation="2"/>
<feComposite in2="hardAlpha" operator="arithmetic" k2="-1" k3="1"/>
<feColorMatrix type="matrix" values="0 0 0 0 1 0 0 0 0 1 0 0 0 0 1 0 0 0 0.6 0"/>
<feBlend mode="normal" in2="shape" result="effect1_innerShadow_6022_7358"/>
</filter>
</defs>
</svg>
