<svg width="19" height="18" viewBox="0 0 19 18" fill="none" xmlns="http://www.w3.org/2000/svg">
<circle cx="9.5" cy="9" r="9" fill="#3FB72A"/>
<path d="M14.1108 7.06251C13.8598 6.46488 13.4948 5.92168 13.0359 5.46318C12.5785 5.00388 12.0351 4.63871 11.4366 4.3884C10.8235 4.13073 10.1647 3.99866 9.49948 4.00001H9.47711C8.80046 4.00336 8.14618 4.13729 7.52992 4.40068C6.93657 4.65356 6.39827 5.01938 5.94511 5.47769C5.49073 5.93516 5.12986 6.47646 4.8826 7.07144C4.62594 7.69014 4.49589 8.35383 4.5001 9.02344C4.50345 9.798 4.68911 10.567 5.03583 11.2545V12.9509C5.03583 13.2344 5.26622 13.4643 5.54919 13.4643H7.24696C7.93912 13.8128 8.70294 13.9962 9.47823 14H9.50171C10.1705 14 10.8181 13.8705 11.4288 13.6172C12.0242 13.3699 12.5656 13.009 13.0225 12.5547C13.4833 12.0982 13.8457 11.5647 14.0996 10.9699C14.3624 10.3538 14.4966 9.69866 14.5 9.02233C14.5022 8.34264 14.3702 7.68304 14.1108 7.06251ZM7.26709 9.53572C6.97183 9.53572 6.73136 9.29576 6.73136 9C6.73136 8.70425 6.97183 8.46429 7.26709 8.46429C7.56236 8.46429 7.80282 8.70425 7.80282 9C7.80282 9.29576 7.56348 9.53572 7.26709 9.53572ZM9.49948 9.53572C9.20421 9.53572 8.96375 9.29576 8.96375 9C8.96375 8.70425 9.20421 8.46429 9.49948 8.46429C9.79474 8.46429 10.0352 8.70425 10.0352 9C10.0352 9.29576 9.79474 9.53572 9.49948 9.53572ZM11.7319 9.53572C11.4366 9.53572 11.1961 9.29576 11.1961 9C11.1961 8.70425 11.4366 8.46429 11.7319 8.46429C12.0271 8.46429 12.2676 8.70425 12.2676 9C12.2676 9.29576 12.0271 9.53572 11.7319 9.53572Z" fill="white"/>
</svg>
