<svg id="a5172d94-e863-4110-9eb2-9148f2026162" data-name="e2fe2331-1492-4e45-ad8e-88ded3edf233" xmlns="http://www.w3.org/2000/svg" width="303.22" height="303.22" viewBox="0 0 303.22 303.22">
  <path d="M151.61,0h0A151.61,151.61,0,0,1,303.22,151.61h0A151.61,151.61,0,0,1,151.61,303.22h0A151.61,151.61,0,0,1,0,151.61H0A151.61,151.61,0,0,1,151.61,0Z" fill="#161616"/>
  <g id="a4db8f76-0541-4b17-a325-512efbe62926" data-name="TIKTOK">
    <path d="M84.3,166a55.08,55.08,0,0,0,10.51,59,55.15,55.15,0,0,1,31.61-100.42,53,53,0,0,1,7.44.64v7.09A55.09,55.09,0,0,0,84.3,166ZM151.64,60.64V180.76a25.23,25.23,0,0,1-25.16,24.29,25.57,25.57,0,0,1-11.62-2.91,25.12,25.12,0,0,0,45.5-13.65V68.26h22a41.41,41.41,0,0,1-.64-7.62Zm49,34.87a41.7,41.7,0,0,0,22.72,13.54v-6.68A41.06,41.06,0,0,1,200.63,95.51Z" fill="#25f4ee"/>
    <path d="M182.32,68.2h8a41.4,41.4,0,0,0,10.29,27.31A41.63,41.63,0,0,1,182.32,68.2ZM114.8,202.14a25.16,25.16,0,0,1,20.4-39.92,26.37,26.37,0,0,1,7.43,1.16V132.82a51.32,51.32,0,0,0-7.43-.58h-1.34v23.24a25.91,25.91,0,0,0-7.44-.87,25.22,25.22,0,0,0-11.62,47.53Zm108.55-93.09v23.24a71.28,71.28,0,0,1-41.67-13.54v61.08A55.25,55.25,0,0,1,126.42,235a54.69,54.69,0,0,1-31.61-10,55.15,55.15,0,0,0,95.53-37.54v-60.9a71.46,71.46,0,0,0,41.73,13.37V110A42.55,42.55,0,0,1,223.35,109.05Z" fill="#fe2c55"/>
    <path d="M223.41,108.88v23.24a71.3,71.3,0,0,1-41.73-13.37v61.08A55.25,55.25,0,0,1,126.42,235a54.66,54.66,0,0,1-31.67-9.35,55.09,55.09,0,0,1,39.05-93v23.25a26,26,0,0,0-7.44-1.17,25.22,25.22,0,0,0-11.62,47.54,25.22,25.22,0,0,0,45.62-13.77V68.2h22a41.63,41.63,0,0,0,18.31,27.31A41.67,41.67,0,0,0,223.41,108.88Z" fill="#f2f2f2"/>
  </g>
</svg>
