<svg id="af74fb2e-121c-45d5-bc15-b3acfc37a569" data-name="e2fe2331-1492-4e45-ad8e-88ded3edf233" xmlns="http://www.w3.org/2000/svg" width="303.22" height="303.22" viewBox="0 0 303.22 303.22">
  <path d="M151.61,0h0A151.61,151.61,0,0,1,303.22,151.61h0A151.61,151.61,0,0,1,151.61,303.22h0A151.61,151.61,0,0,1,0,151.61H0A151.61,151.61,0,0,1,151.61,0Z" fill="#ec1b30"/>
  <g>
    <path d="M230.93,118.49a32.33,32.33,0,0,0-19.06,4.66c-8.3,5-13.44,12.34-15.72,22a25.77,25.77,0,0,0-17.44-9.35l8.48-17.56a8,8,0,0,0-.85-.17h-15.8a2.42,2.42,0,0,0-1.62,1.27c-2.25,4.51-4.4,9.06-6.58,13.6l-8.58,17.87a26.18,26.18,0,0,0-12-11.67l10.13-20.95c-.31-.06-.62-.11-.94-.14H121.51a2.08,2.08,0,0,0-1.49,1.08c-1.29,3.06-2.46,6.17-3.65,9.27-.69,1.79-1.35,3.59-2.12,5.63h12.14c-1.56,3.27-3,6.31-4.47,9.34l-4.48,9.35H120c4.16,0,8.33-.07,12.47.15a8.45,8.45,0,0,1,7.52,6.92c.56,3.26-1.52,6.88-4.87,8.48-3.93,1.86-9,.69-12.26-2.87-1-1.05-1.83-2.17-2.81-3.34-2.69,2.53-5.27,4.95-7.84,7.38-2.39,2.27-2.3,1.52-.48,4.21,10.32,15.2,27.12,14.09,37.27,4A58.58,58.58,0,0,0,154,171.1c9.2,19.5,37.68,18.74,46.1-2.65a33.38,33.38,0,1,0,30.79-50Zm-54.3,50.71a8.76,8.76,0,1,1-.07-17.52,8.92,8.92,0,0,1,8.88,8.74A8.79,8.79,0,0,1,176.63,169.2Zm52,1.47a19,19,0,0,1-18.9-19.1v-.18c.12-10.68,8.86-18.9,19.94-18.75a19,19,0,0,1-1,38Z" fill="#fff"/>
    <path d="M113.22,118.34a2.54,2.54,0,0,0-.65-.24c-1.83,0-3.66,0-5.49,0-2.49,0-3.75.92-4.6,3.28l-7.73,21.54a19.57,19.57,0,0,1-1,1.93c-.41-.92-.64-1.38-.82-1.86l-7.68-21.42c-1-2.76-2-3.51-4.9-3.51H42.76a13.1,13.1,0,0,0-1.7.07c-.11.27-.19.37-.19.47a6,6,0,0,0,5.42,6.53l.58,0c2.24.08,4.5,0,6.85,0v26c0,1.39.41,1.85,1.79,1.78a53.24,53.24,0,0,1,5.65,0c1.32.06,1.69-.41,1.68-1.71v-26H76.59c.37,0,.89.58,1.08,1,.89,2,1.69,4.09,2.51,6.14l6.45,16a7.31,7.31,0,0,0,7.27,4.81,7,7,0,0,0,7.14-4.63c3.35-8.31,6.74-16.6,10.11-24.91C111.79,121.92,112.5,120.15,113.22,118.34Z" fill="#fff"/>
    <path d="M237.57,149.52q-5.52-3.22-11.09-6.35c-1.87-1-3.29-.19-3.33,2V158c0,2,1.5,3,3.25,2,3.77-2.11,7.51-4.25,11.23-6.45C239.56,152.34,239.53,150.66,237.57,149.52Z" fill="#fff"/>
    <path d="M223.14,151.47v4.86C223.12,154.71,223.14,153.09,223.14,151.47Z" fill="#fff"/>
  </g>
</svg>
