<svg id="a3b71c11-2595-4ba5-840d-5f8edeacb1ba" data-name="e2fe2331-1492-4e45-ad8e-88ded3edf233" xmlns="http://www.w3.org/2000/svg" width="303.22" height="303.22" viewBox="0 0 303.22 303.22">
  <path d="M151.61,0A151.62,151.62,0,1,0,303.22,151.61,151.61,151.61,0,0,0,151.61,0Z" transform="translate(0 0)" fill="red"/>
  <path id="a729fcf9-5a7e-45d9-b91f-5c3df85288e0" data-name="YOUTUBE" d="M233.53,97.18c-6.92-7.25-14.68-7.29-18.23-7.71-25.46-1.84-63.65-1.84-63.65-1.84h-.08s-38.19,0-63.65,1.84c-3.55.42-11.31.46-18.23,7.71-5.45,5.52-7.23,18-7.23,18a275.27,275.27,0,0,0-1.82,29.45v13.8a275.27,275.27,0,0,0,1.82,29.45s1.78,12.53,7.23,18.06c6.92,7.24,16,7,20.06,7.77,14.56,1.4,61.86,1.83,61.86,1.83s38.23-.06,63.69-1.9c3.55-.42,11.31-.46,18.23-7.7,5.45-5.53,7.23-18.06,7.23-18.06a275.27,275.27,0,0,0,1.82-29.45v-13.8a275.27,275.27,0,0,0-1.82-29.45S239,102.7,233.53,97.18Zm-100.71,78V124.09L182,149.74Z" transform="translate(0 0)" fill="#fff" fill-rule="evenodd"/>
</svg>
